<svg xmlns="http://www.w3.org/2000/svg" width="132" height="30" viewBox="0 0 132 30">
  <defs>
    <linearGradient id="rf_logo_new_colors-copy-2-a" x1="0%" x2="100.002%" y1="50.001%" y2="50.001%">
      <stop offset="0%" stop-color="#5690FF" stop-opacity=".99"/>
      <stop offset="100%" stop-color="#0052E0"/>
    </linearGradient>
  </defs>
  <g fill="none" fill-rule="evenodd">
    <path fill="#5690FF" d="M21.9689868,13.7365385 L16.6773568,10.275 L2.17480176,1.41923077 C3.26836413,2.63774032 4.12236559,4.048574 4.69268722,5.57884615 C5.07421547,6.57038732 5.33957028,7.60216256 5.48352423,8.65384615 L16.357533,15.4153846 C16.5520027,15.548386 16.6851842,15.7526503 16.7277246,15.983158 C16.7702649,16.2136657 16.7186721,16.4514957 16.5843172,16.6442308 L16.5436123,16.6961538 L16.5436123,16.6961538 L16.5029075,16.7423077 L16.4563877,16.7884615 L16.4273128,16.7884615 L16.3517181,16.8461538 L5.84986784,23.1923077 C5.71141693,23.2867638 5.54058899,23.3222368 5.3755788,23.2907954 C5.2105686,23.259354 5.06513905,23.1636207 4.97180617,23.025 C4.90069518,22.9211207 4.8622448,22.798646 4.86132159,22.6730769 L4.86132159,8.19807692 C4.71458273,7.30408064 4.47889322,6.42671512 4.15770925,5.57884615 C3.4004464,3.48332785 2.08160491,1.63232718 0.3430837,0.225 L0,0 L0,27.2423077 C0.00236416614,28.2227633 0.54593927,29.1231332 1.41608881,29.5878965 C2.28623836,30.0526599 3.34309182,30.0071093 4.16933921,29.4692308 L21.9689868,18.4615385 C22.7707627,17.9388204 23.2535701,17.0508808 23.2535701,16.0990385 C23.2535701,15.1471961 22.7707627,14.2592565 21.9689868,13.7365385 Z" opacity=".47"/>
    <path fill="url(#rf_logo_new_colors-copy-2-a)" d="M21.9689868,13.7365385 L16.6773568,10.275 C17.5291377,10.9611874 18.0696021,11.9563199 18.1787791,13.0395005 C18.287956,14.1226811 17.9568124,15.2042887 17.2588546,16.0442308 C17.0542795,16.2943836 16.8199817,16.5190898 16.5610573,16.7134615 L16.5610573,16.7134615 L16.5203524,16.7596154 L16.4738326,16.8057692 L16.4738326,16.8057692 L16.3982379,16.8634615 L8.83876652,21.2826923 L8.83876652,21.2826923 L5.93127753,23.2384615 C5.79095366,23.3469501 5.61083711,23.3913038 5.43566772,23.3605053 C5.26049834,23.3297069 5.10671299,23.2266463 5.01251101,23.0769231 C4.94140003,22.9730438 4.90294965,22.850569 4.90202643,22.725 L4.90202643,8.22115385 C4.74496668,7.31760137 4.49557453,6.43226535 4.15770925,5.57884615 C3.4004464,3.48332785 2.08160491,1.63232718 0.3430837,0.225 L0,0 L0,27.2423077 C0.00236416614,28.2227633 0.54593927,29.1231332 1.41608881,29.5878965 C2.28623836,30.0526599 3.34309182,30.0071093 4.16933921,29.4692308 L21.9689868,18.4615385 C22.7707627,17.9388204 23.2535701,17.0508808 23.2535701,16.0990385 C23.2535701,15.1471961 22.7707627,14.2592565 21.9689868,13.7365385 Z"/>
    <path fill="#FFF" fill-rule="nonzero" d="M38.28 20.5211538L35.7272247 20.5211538C35.5411454 20.5211538 35.4771806 20.3538462 35.3957709 20.1923077L33.1453744 16.0038462 32.9592952 16.0038462C32.6103965 16.0038462 32.0928634 15.9692308 31.7962996 15.9692308L31.7962996 20.1923077C31.7902778 20.3713914 31.6453495 20.5151795 31.4648458 20.5211538L29.2900441 20.5211538C29.1095403 20.5151795 28.9646121 20.3713914 28.9585903 20.1923077L28.9585903 9.09230769C28.9585903 8.51538462 29.1911894 8.38269231 29.7087225 8.29615385 30.8309042 8.15096355 31.9613564 8.07773462 33.0930396 8.07692308 35.9307489 8.07692308 38.1113656 9.01730769 38.1113656 11.9480769L38.1113656 12.1615385C38.1983923 13.6126664 37.3278786 14.9525146 35.9598238 15.4730769L38.4777093 20.1403846C38.506557 20.1981652 38.5243046 20.2607713 38.5300441 20.325 38.5300441 20.4403846 38.4602643 20.5211538 38.28 20.5211538zM35.2736564 11.9538462C35.2736564 10.9442308 34.4886344 10.4826923 33.0872247 10.4826923 32.8546256 10.4826923 31.9881938 10.5173077 31.7846696 10.5346154L31.7846696 13.7134615 32.9476652 13.7480769C34.6921586 13.7480769 35.2736564 13.3038462 35.2736564 12.1788462L35.2736564 11.9538462zM47.8688987 16.6211538L42.5481938 16.6211538 42.5481938 16.6557692C42.5481938 17.5961538 42.9494273 18.4615385 44.2926872 18.4615385 45.3451982 18.4615385 46.8280176 18.3807692 47.4967401 18.3115385L47.5490749 18.3115385C47.7351542 18.3115385 47.8630837 18.3923077 47.8630837 18.5769231L47.8630837 19.8346154C47.8630837 20.1 47.7991189 20.2153846 47.514185 20.2788462 46.3977331 20.5637761 45.2475858 20.6976806 44.094978 20.6769231 42.0771806 20.6769231 39.9081938 19.6153846 39.9081938 16.425L39.9081938 15.2711538C39.9081938 12.6057692 41.4782379 10.9211538 44.1298678 10.9211538 46.7814978 10.9211538 48.2643172 12.7730769 48.2643172 15.2711538L48.2643172 16.2288462C48.2177974 16.4711538 48.0840529 16.6211538 47.8688987 16.6211538zM45.5836123 14.8903846C45.5836123 13.6673077 45.0021145 13.0557692 44.083348 13.0557692 43.1645815 13.0557692 42.5481938 13.6846154 42.5481938 14.8903846L42.5481938 14.9538462 45.5836123 14.9538462 45.5836123 14.8903846z"/>
    <path fill="#FFF" d="M57.7718062,20.5211538 L55.7249339,20.5211538 C55.5390872,20.5119232 55.3932474,20.3596154 55.3934802,20.175 L55.3934802,14.3538462 C55.3934802,13.6269231 55.2771806,13.1134615 54.4107489,13.1134615 L53.5733921,13.1134615 C52.7069604,13.1134615 52.5906608,13.6269231 52.5906608,14.3538462 L52.5906608,20.1923077 C52.5908935,20.3769231 52.4450538,20.5292309 52.259207,20.5384615 L50.2007048,20.5384615 C50.0189991,20.5261221 49.8799905,20.3728832 49.886696,20.1923077 L49.886696,14.3538462 C49.886696,12.0461538 51.1718062,10.8923077 53.5733921,10.8923077 L54.4049339,10.8923077 C56.8065198,10.8923077 58.09163,12.0461538 58.09163,14.3538462 L58.09163,20.1923077 C58.0888071,20.3683243 57.9490046,20.5120707 57.7718062,20.5211538 Z"/>
    <path fill="#FFF" fill-rule="nonzero" d="M67.4537445 20.2442308C66.2955593 20.5208227 65.1094526 20.6659842 63.9182379 20.6769231 61.2142731 20.6769231 59.7314537 19.1192308 59.7314537 16.4423077L59.7314537 15.1442308C59.7314537 12.5480769 61.0979736 10.9096154 63.9182379 10.9096154 64.3755989 10.922027 64.8318604 10.9605522 65.2847577 11.025L65.2847577 8.14038462C65.2907795 7.96130093 65.4357077 7.81751284 65.6162115 7.81153846L67.6165639 7.81153846C67.8026432 7.81130755 67.9561587 7.95599994 67.9654626 8.14038462L67.9654626 19.7365385C67.9480176 20.025 67.8782379 20.1403846 67.4537445 20.2442308zM65.2614978 13.2115385C64.8079335 13.1585911 64.3516703 13.1316233 63.894978 13.1307692 62.7319824 13.1307692 62.3947137 13.9903846 62.3947137 15.15L62.3947137 16.4423077C62.3947137 17.5961538 62.7145374 18.4788462 63.894978 18.4788462 64.3522382 18.4779615 64.8088702 18.4451884 65.2614978 18.3807692L65.2614978 13.2115385zM77.6881057 16.6211538L72.3674009 16.6211538 72.3674009 16.6557692C72.3674009 17.5961538 72.7686344 18.4615385 74.1118943 18.4615385 75.1644053 18.4615385 76.6472247 18.3807692 77.3159471 18.3115385L77.3159471 18.3115385C77.5020264 18.3115385 77.6299559 18.3923077 77.6299559 18.5769231L77.6299559 19.8346154C77.6299559 20.1 77.5659912 20.2153846 77.2810573 20.2788462 76.1646054 20.5637761 75.014458 20.6976806 73.8618502 20.6769231 71.8440529 20.6769231 69.6750661 19.6153846 69.6750661 16.425L69.6750661 15.2711538C69.6750661 12.6057692 71.2451101 10.9211538 73.8967401 10.9211538 76.54837 10.9211538 78.0137445 12.7730769 78.0137445 15.2711538L78.0137445 16.2288462C78.0370044 16.4711538 77.9207048 16.6211538 77.6881057 16.6211538zM75.4028194 14.8903846C75.4028194 13.6673077 74.8213216 13.0557692 73.9025551 13.0557692 72.9837885 13.0557692 72.3674009 13.6846154 72.3674009 14.8903846L72.3674009 14.9538462 75.4028194 14.9538462 75.4028194 14.8903846z"/>
    <path fill="#FFF" d="M83.9915419 13.1423077C83.4896768 13.1374332 82.9881588 13.170219 82.4912775 13.2403846L82.4912775 20.1923077C82.4915103 20.3769231 82.3456705 20.5292309 82.1598238 20.5384615L80.1420264 20.5384615C79.9553867 20.5246897 79.8070088 20.3774791 79.7931278 20.1923077L79.7931278 11.9192308C79.7931278 11.6884615 79.9268722 11.5211538 80.3106608 11.3884615 81.5038971 11.0253095 82.7501093 10.8634453 83.9973568 10.9096154 84.1950661 10.9096154 84.4451101 10.9903846 84.4451101 11.2211538L84.4451101 12.825C84.4392952 13.0096154 84.3171806 13.1423077 83.9915419 13.1423077zM90.7601762 13.0442308L88.4923348 13.0442308 88.4923348 20.1923077C88.4784537 20.3774791 88.3300759 20.5246897 88.1434361 20.5384615L86.1256388 20.5384615C85.938999 20.5246897 85.7906212 20.3774791 85.7767401 20.1923077L85.7767401 10.3846154C85.7767401 8.07692308 87.3467841 7.58653846 89.0273128 7.58653846 89.6365591 7.59900303 90.2444318 7.6491 90.8474009 7.73653846 91.0334802 7.77115385 91.0974449 7.83461538 91.0974449 7.93269231L91.0974449 9.32307692C91.0974449 9.50769231 91.0334802 9.58846154 90.8648458 9.58846154L89.1203524 9.58846154C88.6028194 9.58846154 88.4865198 9.9 88.4865198 10.3846154L88.4865198 11.0480769 90.7543612 11.0480769C90.934865 11.0540513 91.0797932 11.1978394 91.085815 11.3769231L91.085815 12.6923077C91.0905633 12.7810834 91.0595089 12.8680847 90.9995057 12.9341102 90.9395025 13.0001356 90.8554833 13.0397574 90.7659912 13.0442308L90.7601762 13.0442308z"/>
    <path fill="#FFF" fill-rule="nonzero" d="M96.4297797,20.6711538 C93.725815,20.6711538 92.2429956,18.9980769 92.2429956,16.3673077 L92.2429956,15.2134615 C92.2429956,12.5826923 93.725815,10.9096154 96.4297797,10.9096154 C99.1337445,10.9096154 100.599119,12.5826923 100.599119,15.2134615 L100.599119,16.3673077 C100.599119,19.0038462 99.1337445,20.6711538 96.4297797,20.6711538 Z M97.9125991,15.2134615 C97.9125991,13.875 97.3950661,13.1942308 96.4297797,13.1942308 C95.4644934,13.1942308 94.9295154,13.875 94.9295154,15.2134615 L94.9295154,16.3673077 C94.9295154,17.7057692 95.4644934,18.4038462 96.4297797,18.4038462 C97.3950661,18.4038462 97.9125991,17.7115385 97.9125991,16.3673077 L97.9125991,15.2134615 Z"/>
    <path fill="#FFF" d="M106.536211,13.1423077 C106.034346,13.1374332 105.532828,13.170219 105.035947,13.2403846 L105.035947,20.1923077 C105.03618,20.3769231 104.89034,20.5292309 104.704493,20.5384615 L102.686696,20.5384615 C102.500056,20.5246897 102.351678,20.3774791 102.337797,20.1923077 L102.337797,11.9192308 C102.337797,11.6884615 102.471542,11.5211538 102.85533,11.3884615 C104.048567,11.0253095 105.294779,10.8634453 106.542026,10.9096154 C106.739736,10.9096154 106.98978,10.9903846 106.98978,11.2211538 L106.98978,12.825 C106.995595,13.0096154 106.856035,13.1423077 106.536211,13.1423077 Z"/>
    <path fill="#FFF" fill-rule="nonzero" d="M116.11348,16.6211538 L110.792775,16.6211538 L110.792775,16.6557692 C110.792775,17.5961538 111.194009,18.4615385 112.537269,18.4615385 C113.58978,18.4615385 115.072599,18.3807692 115.741322,18.3115385 L115.793656,18.3115385 C115.979736,18.3115385 116.107665,18.3923077 116.107665,18.5769231 L116.107665,19.8346154 C116.107665,20.1 116.0437,20.2153846 115.758767,20.2788462 C114.642315,20.5637761 113.492167,20.6976806 112.339559,20.6769231 C110.321762,20.6769231 108.152775,19.6153846 108.152775,16.425 L108.152775,15.2711538 C108.152775,12.6057692 109.722819,10.9211538 112.374449,10.9211538 C115.026079,10.9211538 116.491454,12.7730769 116.491454,15.2711538 L116.491454,16.2288462 C116.488755,16.4377629 116.323718,16.6090589 116.11348,16.6211538 Z M113.828194,14.8903846 C113.828194,13.6673077 113.246696,13.0557692 112.32793,13.0557692 C111.409163,13.0557692 110.792775,13.6846154 110.792775,14.8903846 L110.792775,14.9538462 L113.828194,14.9538462 L113.828194,14.8903846 Z"/>
    <path fill="#FFF" d="M121.329515 20.6711538C120.306833 20.6686969 119.288004 20.5467022 118.294097 20.3076923 118.108409 20.2761443 117.974487 20.1137489 117.980088 19.9269231L117.980088 18.5884615C117.978531 18.5073623 118.009518 18.4289726 118.066228 18.3705446 118.122938 18.3121166 118.200724 18.2784388 118.282467 18.2769231L118.358062 18.2769231C119.259383 18.3923077 120.684053 18.5076923 121.195771 18.5076923 121.998238 18.5076923 122.178502 18.2942308 122.178502 17.8615385 122.178502 17.6134615 122.027313 17.4288462 121.562115 17.1692308L119.393128 15.9288462C118.475104 15.4543895 117.902407 14.5096333 117.910308 13.4826923 117.910308 11.8096154 119.026784 10.9153846 121.329515 10.9153846 122.333125 10.9029486 123.333479 11.0311364 124.300969 11.2961538 124.486657 11.3277019 124.620579 11.4900972 124.614978 11.6769231L124.614978 13.0153846C124.614978 13.2115385 124.516123 13.3269231 124.347489 13.3269231L124.283524 13.3269231C123.365377 13.2068557 122.441414 13.1356001 121.515595 13.1134615 120.864317 13.1134615 120.631718 13.2115385 120.631718 13.5923077 120.631718 13.8403846 120.817797 13.9730769 121.149251 14.1692308L123.219383 15.3230769C124.603348 16.1192308 124.905727 16.9788462 124.905727 17.8730769 124.899912 19.4480769 123.765991 20.6711538 121.329515 20.6711538zM131.552247 13.0442308L129.26696 13.0442308 129.26696 17.9596154C129.26696 18.5365385 129.534449 18.6403846 130.249692 18.6403846L131.499912 18.6403846C131.715066 18.6403846 131.848811 18.7384615 131.848811 18.9230769L131.848811 20.1923077C131.848811 20.3769231 131.732511 20.4923077 131.517357 20.5211538 130.855218 20.6200633 130.186606 20.6702003 129.517004 20.6711538 127.650396 20.6711538 126.545551 20.0942308 126.545551 17.9423077L126.545551 9.63461538C126.559335 9.45897479 126.699971 9.31944505 126.877004 9.30576923L128.912247 8.95961538 128.964581 8.95961538C129.13366 8.97959742 129.262384 9.11958811 129.26696 9.28846154L129.26696 11.0192308 131.552247 11.0192308C131.73275 11.0252052 131.877679 11.1689932 131.8837 11.3480769L131.8837 12.6923077C131.888449 12.7810834 131.857394 12.8680847 131.797391 12.9341102 131.737388 13.0001356 131.653369 13.0397574 131.563877 13.0442308L131.552247 13.0442308z"/>
  </g>
</svg>
